<svg width="47" height="47" viewBox="0 0 47 47" fill="none" xmlns="http://www.w3.org/2000/svg">
<rect width="47" height="47" rx="23.5" fill="#145659"/>
<path d="M19.7116 11.6213L15.4116 15.9331" stroke="#A2B846" stroke-width="2.11905" stroke-miterlimit="10" stroke-linecap="round" stroke-linejoin="round"/>
<path d="M27.2898 11.6213L31.5897 15.9331" stroke="#A2B846" stroke-width="2.11905" stroke-miterlimit="10" stroke-linecap="round" stroke-linejoin="round"/>
<path d="M11.6218 18.5698C11.6218 16.3723 12.7978 16.1941 14.2588 16.1941H32.7415C34.2025 16.1941 35.3784 16.3723 35.3784 18.5698C35.3784 21.1236 34.2025 20.9454 32.7415 20.9454L14.2588 20.9454C12.7978 20.9454 11.6218 21.1236 11.6218 18.5698Z" stroke="#A2B846" stroke-width="2.11905"/>
<path d="M13.4033 21.1244L15.0782 27.8237C15.4583 30.1281 16.3729 31.8148 19.7701 31.8148H26.9327C30.6269 31.8148 31.1733 30.1994 31.6009 27.9663L33.5964 21.1244" stroke="#A2B846" stroke-width="2.11905" stroke-linecap="round"/>
</svg>
