<svg width="23" height="23" viewBox="0 0 23 23" fill="none" xmlns="http://www.w3.org/2000/svg">
<path fill-rule="evenodd" clip-rule="evenodd" d="M0 8.93076C0 13.8631 3.99844 17.8615 8.93076 17.8615C10.9946 17.8615 12.8949 17.1615 14.4072 15.9859L19.7302 21.309C19.7466 21.3278 19.7638 21.3462 19.7817 21.3641L20.5352 22.1191C20.9718 22.5565 21.6802 22.5571 22.1176 22.1206C22.555 21.6841 22.5557 20.9756 22.1191 20.5382L21.3656 19.7832C21.3472 19.7648 21.3283 19.7471 21.3089 19.7302L15.9859 14.4072C17.1615 12.8949 17.8615 10.9946 17.8615 8.93076C17.8615 3.99844 13.8631 0 8.93076 0C3.99844 0 0 3.99844 0 8.93076ZM8.93077 15.6288C12.63 15.6288 15.6288 12.63 15.6288 8.93077C15.6288 5.23152 12.63 2.2327 8.93077 2.2327C5.23152 2.2327 2.2327 5.23152 2.2327 8.93077C2.2327 12.63 5.23152 15.6288 8.93077 15.6288Z" fill="#145659"/>
</svg>
