<svg width="207" height="63" viewBox="0 0 207 63" fill="none" xmlns="http://www.w3.org/2000/svg">
<path d="M3.32877 62.1482C13.9072 53.005 25.3549 44.8588 37.4029 37.7575C49.4586 30.656 62.1229 24.6145 75.228 19.7006C88.3864 14.7617 101.962 10.928 115.763 8.26028C129.494 5.61035 143.461 4.15689 157.445 3.89964C171.429 3.64239 185.424 4.58931 199.232 6.83987C200.966 7.11996 202.7 7.42319 204.428 7.74982C206.871 8.20625 207.77 4.45359 205.327 3.99716C191.244 1.37773 176.911 0.0486399 162.584 0.00111455C148.357 -0.0421522 134.143 1.18817 120.124 3.57773C106.051 5.97687 92.1817 9.57354 78.723 14.322C65.272 19.0702 52.2085 24.971 39.7699 31.9545C27.3766 38.9055 15.6086 46.9546 4.66377 56.0101C3.26545 57.1624 1.88309 58.3296 0.516983 59.5193C-0.27126 60.2028 -0.0922217 61.5865 0.610923 62.2495C1.4416 63.0239 2.54851 62.8391 3.34447 62.1554L3.32877 62.1482Z" fill="#A93266"/>
</svg>
