<svg width="94" height="129" viewBox="0 0 94 129" fill="none" xmlns="http://www.w3.org/2000/svg">
<g clip-path="url(#clip0_91_1018)">
<path d="M24.5929 61.6396C24.5929 59.2497 24.2861 57.3597 23.664 55.9698C23.042 54.5799 22.3432 53.4611 21.5678 52.6136C20.7923 51.7661 20.0936 51.0711 19.4715 50.5287C18.8494 49.9863 18.5427 49.41 18.5427 48.7913C18.5427 48.41 18.696 48.0794 19.0113 47.8082C19.3181 47.537 19.6675 47.4014 20.0595 47.4014L43.9195 43.8164C44.6183 43.6639 45.1977 43.8588 45.6664 44.3927C46.1351 44.9352 46.3652 45.5538 46.3652 46.2488V72.8692C47.9161 71.2504 49.8163 69.9792 52.066 69.0469C54.3157 68.1231 56.9147 67.657 59.8631 67.657C63.4336 67.657 66.6888 68.2926 69.6372 69.5639C72.5856 70.8352 75.108 72.6319 77.2042 74.9456C79.3005 77.2593 80.9111 80.0392 82.0359 83.2766C83.1607 86.5142 83.7232 90.1076 83.7232 94.0401V116.728C83.7232 118.347 84.0725 119.737 84.7713 120.898C85.47 122.059 86.2455 123.042 87.0976 123.847C87.9498 124.661 88.7252 125.39 89.424 126.042C90.1227 126.695 90.4721 127.373 90.4721 128.068C90.4721 128.686 90.2761 128.992 89.8927 128.992H56.0285C55.6365 128.992 55.449 128.72 55.449 128.178C55.449 127.483 55.7984 126.788 56.4972 126.093L58.7042 123.898C59.5563 123.05 60.3148 122.042 60.9709 120.889C61.6271 119.728 61.9594 118.347 61.9594 116.72V94.0316C61.9594 87.938 61.1413 83.0563 59.5137 79.3866C57.8861 75.7253 55.6706 73.8862 52.8841 73.8862C51.0946 73.8862 49.5692 74.6574 48.291 76.1999C47.0128 77.7424 46.3737 79.8696 46.3737 82.5647V116.711C46.3737 118.33 46.7231 119.72 47.4218 120.881C48.1206 122.042 48.896 123.025 49.7482 123.83C50.6003 124.644 51.3758 125.373 52.0745 126.025C52.7733 126.678 53.1227 127.356 53.1227 128.051C53.1227 128.669 52.8926 128.975 52.4239 128.975H18.6534C18.2614 128.975 18.074 128.703 18.074 128.161C18.074 127.466 18.4234 126.771 19.1221 126.076L21.3292 123.881C22.1813 123.033 22.9397 122.025 23.5959 120.872C24.252 119.711 24.5844 118.33 24.5844 116.703V61.6057L24.5929 61.6396Z" fill="#0A5559"/>
<path d="M93.7274 105.634C93.0371 102.973 91.1198 100.786 88.8275 99.3369C86.1944 97.6673 83.0756 97.1419 80.0164 96.8283C73.0884 96.1248 66.0497 97.1842 59.2837 98.642C56.003 99.3454 52.7563 100.176 49.5096 101.032C46.7402 101.761 43.9366 102.388 41.0819 102.6C36.1395 102.973 29.0582 102.1 27.5328 96.4469C27.0386 94.5993 27.2005 92.667 27.9248 90.9381C28.8622 90.8448 29.791 90.6923 30.7028 90.4719C31.5805 90.2516 32.4241 89.9465 33.2507 89.582C33.9836 89.26 34.7931 88.8786 35.3385 88.2769C36.2843 87.2175 36.2332 85.6665 35.364 84.5732C34.3841 83.3443 32.8246 83.2172 31.4953 83.9291C30.0552 84.7088 28.7173 85.7513 27.6521 86.9971C27.209 87.5226 26.8085 88.0819 26.4676 88.6667C26.425 88.6667 26.3824 88.6667 26.3398 88.6667C23.1102 88.7599 19.8976 88.243 16.864 87.1412C11.1631 85.0733 6.45931 80.7933 4.0733 75.2252C1.84069 70.013 1.79808 63.9787 4.15 58.8004C6.54452 53.5373 10.5666 48.6217 15.4579 45.469C16.5231 44.7825 17.6394 44.1723 18.8239 43.7231C18.9603 43.6722 19.0881 43.596 19.2074 43.5112C22.2666 43.0451 28.7003 42.0535 28.7173 42.0535C29.186 41.9772 29.6206 41.7145 29.8507 41.2907C29.97 41.0788 30.0296 40.8246 30.0296 40.5788C30.0296 40.2652 29.8421 40.1635 29.6206 39.9856C22.3177 34.3242 23.6044 25.6287 26.0927 21.2725C28.8622 16.4247 33.745 14.6195 34.7505 14.289C37.0939 13.6957 39.531 13.433 41.9085 13.5177C43.0504 13.5601 44.1922 13.7042 45.3 13.9584C45.5386 14.0178 45.8028 14.0686 46.0414 14.1534C46.0584 14.1279 46.084 14.1195 46.1181 14.1364C46.4334 14.2042 46.7572 14.2974 47.0469 14.3907C48.0865 14.7042 49.075 15.128 49.8079 15.823C50.2595 16.2382 50.6089 16.7552 50.8049 17.3993C51.1202 18.4248 50.8645 19.374 50.3192 20.1029C50.0124 20.4843 49.5948 20.8148 49.1176 21.0013C48.9131 21.1114 48.7427 21.1708 48.5978 21.1962C48.4018 21.2301 48.2314 21.264 48.0354 21.2725C47.5667 21.3064 47.0554 21.2979 46.5868 21.2301C41.917 20.8233 37.6904 16.9247 33.0292 19.8571C31.9384 20.5351 31.1118 21.3572 30.4557 22.3319C28.206 25.7304 28.8963 30.0697 30.9925 33.358C33.2678 36.9345 36.6422 38.6804 40.92 38.46C53.4891 37.782 64.55 28.1882 68.8618 16.7298C69.3816 15.306 69.8162 13.8228 70.14 12.3058C70.2849 11.6023 70.4127 10.8989 70.5064 10.1785C70.6087 9.50898 67.345 7.26307 66.8167 6.85626C65.3765 5.73755 63.8086 4.77138 62.2066 3.90692C59.0451 2.22037 55.628 1.05927 52.1001 0.449064C44.891 -0.74593 36.7615 0.499915 30.3875 4.1188C29.3394 4.71206 28.3594 5.44092 27.3794 6.27148C27.3027 6.28843 27.2601 6.31386 27.192 6.35623C21.5508 10.5684 17.0855 17.4332 15.7818 24.3235C15.0148 28.4001 15.6539 32.8325 17.7843 36.3328C18.1337 36.9091 18.5257 37.5193 18.9688 38.0363C19.3522 38.477 19.4801 39.1465 19.4801 39.1465C19.4545 39.3414 19.4034 39.5364 19.3352 39.7144C19.1051 40.2991 18.841 40.8076 18.5086 41.2653L18.3893 41.4263C18.3297 41.4348 18.27 41.4433 18.2104 41.4687C12.3732 43.6638 7.62674 48.5285 4.3119 53.6559C2.70135 56.1392 1.34644 58.8682 0.656206 61.7497C-0.0936809 64.877 -0.14481 68.123 0.44317 71.2757C1.61913 77.6067 5.48786 83.2511 10.8905 86.7598C13.7451 88.6159 17.0088 89.8956 20.3578 90.5228C22.0024 90.8279 23.7067 91.0228 25.4195 91.0398C24.9679 92.4636 24.8145 93.9806 25.002 95.4977C25.3939 98.625 27.0301 101.151 29.7314 102.786C35.1169 106.049 42.0534 105.219 47.8991 103.863C51.1543 103.108 54.3754 102.185 57.6306 101.43C61.1499 100.617 64.7119 99.8963 68.2994 99.4471C71.8954 99.0064 75.5426 98.8115 79.1642 99.0996C82.2064 99.3369 85.3764 99.82 87.9498 101.549C90.0205 102.939 91.6311 105.176 91.6993 107.676C91.776 110.558 89.9865 113.236 87.6686 114.838C86.4501 115.677 85.1037 116.279 83.6721 116.669C82.2064 117.058 82.8285 119.33 84.3027 118.931C87.3022 118.126 90.0291 116.448 91.9123 113.973C93.7018 111.617 94.5284 108.532 93.7785 105.642L93.7274 105.634ZM32.3389 86.1411C32.586 85.9971 32.7735 85.8615 33.0206 85.8106C33.0377 85.8106 33.1996 85.8106 33.2422 85.8106C33.1144 85.8021 33.2763 85.836 33.2507 85.8275C33.3871 85.8784 33.4723 85.9801 33.4978 86.0055C33.5234 86.0394 33.5916 86.1666 33.6171 86.2089C33.6171 86.2428 33.6512 86.3445 33.6597 86.37C33.6597 86.4123 33.6597 86.4632 33.6597 86.4886C33.6427 86.531 33.6257 86.5903 33.6171 86.6157C33.5404 86.7429 33.3956 86.8361 33.174 86.9632C32.4923 87.3615 31.7765 87.6667 31.0181 87.9124C30.5579 88.065 30.0893 88.1836 29.6206 88.2769C30.4046 87.4294 31.3334 86.709 32.3304 86.1242L32.3389 86.1411Z" fill="#EC5D34"/>
</g>
<defs>
<clipPath id="clip0_91_1018">
<rect width="94" height="129" fill="white"/>
</clipPath>
</defs>
</svg>
