<svg width="94" height="94" viewBox="0 0 94 94" fill="none" xmlns="http://www.w3.org/2000/svg">
<path d="M14.2617 0L1.90145 39.4911C-4.92303 61.2953 7.19839 84.5107 29.0534 91.351C50.9084 98.1914 74.0628 86.017 80.8872 64.2128L93.2475 24.7217L14.2617 0ZM71.2316 50.1988C70.4538 51.4331 69.6367 52.6531 68.7263 53.7586C61.4285 62.7702 48.6026 68.0535 37.1681 64.8659C33.29 63.7832 30.7898 61.219 29.838 57.314C28.9582 53.7375 29.6414 49.6055 32.682 47.256C33.5878 46.5841 34.5763 46.0672 35.752 45.7837C40.7924 44.5369 43.4137 49.3556 47.4751 51.1035C47.8465 51.3071 48.3207 51.4556 48.7171 51.5796C48.9144 51.6414 49.0861 51.6514 49.256 51.6609C49.4153 51.7108 49.5454 51.7078 49.7795 51.6519C50.2655 51.6293 50.7467 51.476 51.137 51.2069C51.8492 50.7346 52.3586 49.9386 52.3665 48.942C52.393 48.2988 52.265 47.7364 51.954 47.206C51.5187 46.3746 50.7721 45.706 49.921 45.092C49.7088 44.9382 49.4164 44.7612 49.1644 44.595C49.137 44.5427 49.1246 44.5825 49.1246 44.5825C48.9124 44.4287 48.6859 44.3141 48.513 44.1746C47.5971 43.6277 46.6171 43.1462 45.6015 42.7846C43.5013 41.9962 41.2219 41.5013 38.974 41.3181C37.977 41.3099 33.0597 41.4651 29.0963 44.9598C25.5731 48.1593 21.776 55.5733 26.5814 62.8553C26.7692 63.0869 26.8911 63.2562 26.8045 63.5329C26.703 63.7177 26.5884 63.944 26.409 64.1044C26.1002 64.399 25.6297 64.5119 25.1685 64.455L14.7435 62.6261C14.5718 62.6161 14.5313 62.4723 14.5532 62.2627C14.6125 61.9336 14.8186 61.6942 15.1548 61.4519L16.2679 60.6701C16.7211 60.3333 17.0959 59.9739 17.4944 59.5325C17.5834 59.3876 17.7254 59.2135 17.7746 59.0561C17.7746 59.0561 17.8932 58.398 17.6606 57.8903C17.4126 57.2922 17.2697 56.6377 17.1137 56.0248C16.2689 52.1971 17.0436 48.0519 18.9482 44.608C22.1993 38.8048 28.2768 33.9717 34.6139 31.9151C34.6662 31.8878 34.7185 31.8604 34.7963 31.8848C35.9422 31.4172 37.0128 31.0571 38.1618 30.8526C44.9336 29.4962 52.5937 30.8509 58.6641 34.0976C61.6458 35.6823 64.3347 37.7832 66.6501 40.2458C67.8266 41.484 68.9282 42.8279 69.9009 44.3042C70.2237 44.7966 72.4978 47.8104 72.1944 48.3669C71.8644 49.0025 71.5485 49.5988 71.2309 50.1946L71.2316 50.1988Z" fill="#f6a7c4"/>
</svg>
