<svg width="232" height="99" viewBox="0 0 232 99" fill="none" xmlns="http://www.w3.org/2000/svg">
<path d="M229.29 90.5218C216.864 94.285 203.626 95.3428 190.756 93.6082C177.886 91.8736 165.803 87.6179 154.925 80.8576C144.994 74.6824 136.271 66.5121 129.39 57.0663C125.933 52.3207 122.914 47.2512 120.419 41.9398C117.809 36.3853 115.451 30.3279 114.568 24.2197C113.713 18.2419 114.414 11.8862 118.909 7.46934C122.334 4.10849 127.849 2.40532 132.029 5.45818C135.629 8.09084 137.025 13.1467 136.483 17.4121C135.771 23.0114 131.749 27.6669 127.443 31.0272C118.897 37.6914 108.316 42.032 97.8596 44.6155C87.5184 47.1719 76.7509 47.8976 66.152 47.0114C55.5532 46.1253 45.1279 43.5421 35.3983 39.383C25.6687 35.2239 16.5177 29.4543 8.72983 22.1862C6.81289 20.399 4.98569 18.5238 3.24104 16.5763C2.54164 15.7973 1.17884 15.96 0.507491 16.6703C-0.260532 17.4921 -0.0979725 18.6215 0.60143 19.4005C8.15908 27.8425 17.3731 34.7681 27.4618 39.9264C37.5739 45.0915 48.5857 48.5424 59.8277 50.1477C71.1784 51.7648 82.7058 51.5534 93.9656 49.4055C105.225 47.2576 116.147 43.1369 125.737 36.9541C131.031 33.5367 136.168 29.1363 138.764 23.2559C141.031 18.1359 140.976 12.2618 138.422 7.25348C135.869 2.24521 130.586 -0.7311 125.012 0.155635C119.161 1.0905 114.097 5.58872 111.95 11.0367C109.262 17.8623 110.412 25.4437 112.525 32.2585C114.386 38.2481 116.943 44.0438 119.985 49.5218C126.05 60.4165 134.309 70.147 144.077 77.8952C154.457 86.132 166.483 92.0883 179.343 95.329C192.203 98.5696 206.958 99.1429 220.601 96.6041C223.927 95.9878 227.208 95.18 230.444 94.1961C232.824 93.4733 231.677 89.7911 229.289 90.5141L229.29 90.5218Z" fill="#A93266"/>
</svg>
