<svg width="254" height="137" viewBox="0 0 254 137" fill="none" xmlns="http://www.w3.org/2000/svg">
<path d="M1.00213 133.634C21.3725 141.697 43.3049 129.322 56.0364 113.549C70.1692 96.0368 77.458 74.197 91.3924 56.5374C103.053 41.7589 117.931 29.7343 134.543 20.924C151.133 12.1221 169.495 6.52545 188.176 4.60861C206.881 2.69097 225.937 4.43668 243.82 10.3074C246.001 11.0199 248.154 11.7952 250.293 12.6404C251.273 13.0236 252.365 12.8471 252.91 11.8554C253.369 11.0289 253.096 9.62524 252.125 9.24173C234.405 2.26129 215.291 -0.717852 196.264 0.145321C177.329 1.0053 158.545 5.54325 141.287 13.3566C124.03 21.1699 108.188 32.1698 95.2847 46.0799C88.4934 53.3941 82.672 61.4857 77.6337 70.0908C71.7487 80.1536 66.7309 90.7038 60.5224 100.577C54.7025 109.834 47.7593 118.351 38.527 124.374C30.2096 129.803 20.0075 133.482 9.94769 132.083C7.52387 131.742 5.11445 131.145 2.83367 130.243C1.85411 129.86 0.762375 130.036 0.216669 131.028C-0.241948 131.855 0.0305492 133.258 1.00239 133.642L1.00213 133.634Z" fill="#A93266"/>
</svg>
